<mxfile host="app.diagrams.net" modified="2021-11-10T05:56:03.829Z" agent="5.0 (Windows NT 10.0; Win64; x64) AppleWebKit/537.36 (KHTML, like Gecko) Chrome/95.0.4638.69 Safari/537.36" etag="9wdJRpRECc8FQzbyCEka" version="15.7.0" type="github">
  <diagram id="iWZFfSqNQOpmOCwamEa_" name="Page-1">
    <mxGraphModel dx="782" dy="432" grid="1" gridSize="10" guides="1" tooltips="1" connect="1" arrows="1" fold="1" page="1" pageScale="1" pageWidth="850" pageHeight="1100" math="0" shadow="0">
      <root>
        <mxCell id="0" />
        <mxCell id="1" parent="0" />
        <mxCell id="5p0G7RZw7-WrblyWdG-P-5" value="" style="edgeStyle=orthogonalEdgeStyle;rounded=0;orthogonalLoop=1;jettySize=auto;html=1;" edge="1" parent="1" target="5p0G7RZw7-WrblyWdG-P-4">
          <mxGeometry relative="1" as="geometry">
            <mxPoint x="370" y="180" as="sourcePoint" />
          </mxGeometry>
        </mxCell>
        <mxCell id="5p0G7RZw7-WrblyWdG-P-7" value="" style="edgeStyle=orthogonalEdgeStyle;rounded=0;orthogonalLoop=1;jettySize=auto;html=1;" edge="1" parent="1" target="5p0G7RZw7-WrblyWdG-P-6">
          <mxGeometry relative="1" as="geometry">
            <mxPoint x="430" y="180" as="sourcePoint" />
          </mxGeometry>
        </mxCell>
        <mxCell id="5p0G7RZw7-WrblyWdG-P-9" value="" style="edgeStyle=orthogonalEdgeStyle;rounded=0;orthogonalLoop=1;jettySize=auto;html=1;" edge="1" parent="1" target="5p0G7RZw7-WrblyWdG-P-8">
          <mxGeometry relative="1" as="geometry">
            <mxPoint x="440" y="180" as="sourcePoint" />
          </mxGeometry>
        </mxCell>
        <mxCell id="5p0G7RZw7-WrblyWdG-P-16" value="" style="edgeStyle=orthogonalEdgeStyle;rounded=0;orthogonalLoop=1;jettySize=auto;html=1;" edge="1" parent="1" source="5p0G7RZw7-WrblyWdG-P-1" target="5p0G7RZw7-WrblyWdG-P-15">
          <mxGeometry relative="1" as="geometry" />
        </mxCell>
        <mxCell id="5p0G7RZw7-WrblyWdG-P-1" value="user:User" style="rounded=0;whiteSpace=wrap;html=1;" vertex="1" parent="1">
          <mxGeometry x="380" y="60" width="120" height="60" as="geometry" />
        </mxCell>
        <mxCell id="5p0G7RZw7-WrblyWdG-P-11" value="" style="edgeStyle=orthogonalEdgeStyle;rounded=0;orthogonalLoop=1;jettySize=auto;html=1;" edge="1" parent="1" source="5p0G7RZw7-WrblyWdG-P-4" target="5p0G7RZw7-WrblyWdG-P-10">
          <mxGeometry relative="1" as="geometry" />
        </mxCell>
        <mxCell id="5p0G7RZw7-WrblyWdG-P-14" value="" style="edgeStyle=orthogonalEdgeStyle;rounded=0;orthogonalLoop=1;jettySize=auto;html=1;" edge="1" parent="1" source="5p0G7RZw7-WrblyWdG-P-4" target="5p0G7RZw7-WrblyWdG-P-13">
          <mxGeometry relative="1" as="geometry" />
        </mxCell>
        <mxCell id="5p0G7RZw7-WrblyWdG-P-4" value="reports:Report" style="whiteSpace=wrap;html=1;rounded=0;" vertex="1" parent="1">
          <mxGeometry x="130" y="240" width="120" height="60" as="geometry" />
        </mxCell>
        <mxCell id="5p0G7RZw7-WrblyWdG-P-29" value="" style="edgeStyle=orthogonalEdgeStyle;rounded=0;orthogonalLoop=1;jettySize=auto;html=1;" edge="1" parent="1" source="5p0G7RZw7-WrblyWdG-P-6" target="5p0G7RZw7-WrblyWdG-P-28">
          <mxGeometry relative="1" as="geometry" />
        </mxCell>
        <mxCell id="5p0G7RZw7-WrblyWdG-P-31" value="" style="edgeStyle=orthogonalEdgeStyle;rounded=0;orthogonalLoop=1;jettySize=auto;html=1;" edge="1" parent="1" source="5p0G7RZw7-WrblyWdG-P-6" target="5p0G7RZw7-WrblyWdG-P-30">
          <mxGeometry relative="1" as="geometry" />
        </mxCell>
        <mxCell id="5p0G7RZw7-WrblyWdG-P-6" value="faciltity:Facility" style="whiteSpace=wrap;html=1;rounded=0;" vertex="1" parent="1">
          <mxGeometry x="640" y="240" width="120" height="60" as="geometry" />
        </mxCell>
        <mxCell id="5p0G7RZw7-WrblyWdG-P-8" value="e:Emergency" style="rounded=0;whiteSpace=wrap;html=1;" vertex="1" parent="1">
          <mxGeometry x="300" y="240" width="120" height="60" as="geometry" />
        </mxCell>
        <mxCell id="5p0G7RZw7-WrblyWdG-P-10" value="s:Sugar" style="whiteSpace=wrap;html=1;rounded=0;" vertex="1" parent="1">
          <mxGeometry x="110" y="440" width="70" height="60" as="geometry" />
        </mxCell>
        <mxCell id="5p0G7RZw7-WrblyWdG-P-13" value="b:BP" style="whiteSpace=wrap;html=1;rounded=0;" vertex="1" parent="1">
          <mxGeometry x="200" y="440" width="70" height="60" as="geometry" />
        </mxCell>
        <mxCell id="5p0G7RZw7-WrblyWdG-P-19" value="" style="edgeStyle=orthogonalEdgeStyle;rounded=0;orthogonalLoop=1;jettySize=auto;html=1;" edge="1" parent="1" source="5p0G7RZw7-WrblyWdG-P-15" target="5p0G7RZw7-WrblyWdG-P-18">
          <mxGeometry relative="1" as="geometry" />
        </mxCell>
        <mxCell id="5p0G7RZw7-WrblyWdG-P-21" value="" style="edgeStyle=orthogonalEdgeStyle;rounded=0;orthogonalLoop=1;jettySize=auto;html=1;" edge="1" parent="1" source="5p0G7RZw7-WrblyWdG-P-15" target="5p0G7RZw7-WrblyWdG-P-20">
          <mxGeometry relative="1" as="geometry" />
        </mxCell>
        <mxCell id="5p0G7RZw7-WrblyWdG-P-15" value="trends:Trends" style="whiteSpace=wrap;html=1;rounded=0;" vertex="1" parent="1">
          <mxGeometry x="470" y="240" width="120" height="60" as="geometry" />
        </mxCell>
        <mxCell id="5p0G7RZw7-WrblyWdG-P-18" value="sugar:SugarTrends" style="whiteSpace=wrap;html=1;rounded=0;" vertex="1" parent="1">
          <mxGeometry x="400" y="445" width="120" height="50" as="geometry" />
        </mxCell>
        <mxCell id="5p0G7RZw7-WrblyWdG-P-20" value="bp:BPTrends" style="whiteSpace=wrap;html=1;rounded=0;" vertex="1" parent="1">
          <mxGeometry x="550" y="445" width="120" height="50" as="geometry" />
        </mxCell>
        <mxCell id="5p0G7RZw7-WrblyWdG-P-28" value="&lt;font style=&quot;font-size: 9px&quot;&gt;m:Medical Shops&lt;/font&gt;" style="whiteSpace=wrap;html=1;rounded=0;" vertex="1" parent="1">
          <mxGeometry x="620" y="340" width="80" height="60" as="geometry" />
        </mxCell>
        <mxCell id="5p0G7RZw7-WrblyWdG-P-30" value="h:Hosptials" style="whiteSpace=wrap;html=1;rounded=0;" vertex="1" parent="1">
          <mxGeometry x="720" y="340" width="80" height="60" as="geometry" />
        </mxCell>
      </root>
    </mxGraphModel>
  </diagram>
</mxfile>
